<svg width="22" height="20" viewBox="0 0 22 20" fill="none" xmlns="http://www.w3.org/2000/svg">
<path fill-rule="evenodd" clip-rule="evenodd" d="M15.5002 5.00012C15.5002 7.4854 13.4855 9.50012 11.0002 9.50012C8.5149 9.50012 6.50018 7.4854 6.50018 5.00012C6.50018 2.51484 8.5149 0.500122 11.0002 0.500122C13.4855 0.500122 15.5002 2.51484 15.5002 5.00012ZM14.0002 5.00012C14.0002 6.65698 12.657 8.00012 11.0002 8.00012C9.34333 8.00012 8.00018 6.65698 8.00018 5.00012C8.00018 3.34327 9.34333 2.00012 11.0002 2.00012C12.657 2.00012 14.0002 3.34327 14.0002 5.00012Z" fill="#11381C"/>
<path d="M11.0002 11.7501C6.14439 11.7501 2.00714 14.6214 0.431152 18.6442C0.815074 19.0254 1.21951 19.386 1.64265 19.7242C2.8162 16.0309 6.49772 13.2501 11.0002 13.2501C15.5026 13.2501 19.1842 16.0309 20.3577 19.7242C20.7809 19.386 21.1853 19.0254 21.5692 18.6442C19.9932 14.6214 15.856 11.7501 11.0002 11.7501Z" fill="#11381C"/>
</svg>
